<svg width="971" height="792" viewBox="0 0 971 792" fill="none" xmlns="http://www.w3.org/2000/svg">
<path d="M7.75523 783.278C3.10209 783.278 0 780.176 0 775.523V15.5104C0 10.8573 3.10209 7.75522 7.75523 7.75522H144.247C228.004 7.75522 288.494 63.5928 288.494 141.145V263.678C288.494 297.801 269.882 330.373 240.412 350.536V361.393C269.882 373.802 288.494 403.272 288.494 443.599V648.337C288.494 725.889 228.004 783.278 144.247 783.278H7.75523ZM144.247 682.46C159.758 682.46 170.615 670.051 170.615 651.439V457.558C170.615 437.395 156.656 426.537 136.492 431.191L117.879 435.844V682.46H144.247ZM117.879 324.168L141.145 317.964C158.207 313.311 170.615 296.25 170.615 276.086V139.594C170.615 120.981 159.758 108.573 144.247 108.573H117.879V324.168Z" fill="#07144A" style="fill:#07144A;fill:color(display-p3 0.0275 0.0784 0.2902);fill-opacity:1;"/>
<path d="M348.561 783.278C343.908 783.278 340.806 780.176 340.806 775.523V15.5104C340.806 10.8573 343.908 7.75522 348.561 7.75522H486.604C568.809 7.75522 629.3 65.1438 629.3 142.696V648.337C629.3 725.889 568.809 783.278 486.604 783.278H348.561ZM485.053 682.46C500.563 682.46 511.421 670.051 511.421 651.439V139.594C511.421 120.981 500.563 108.573 485.053 108.573H458.685V682.46H485.053Z" fill="#07144A" style="fill:#07144A;fill:color(display-p3 0.0275 0.0784 0.2902);fill-opacity:1;"/>
<path d="M825.859 791.033C742.102 791.033 681.612 730.542 681.612 648.337V142.696C681.612 60.4907 742.102 0 825.859 0C909.615 0 970.106 60.4907 970.106 142.696V257.473C970.106 263.678 965.453 265.229 960.8 263.678L858.431 231.106C855.329 229.555 852.227 228.004 852.227 223.35V139.594C852.227 120.981 841.369 108.573 825.859 108.573C810.348 108.573 799.491 120.981 799.491 139.594V651.439C799.491 670.051 810.348 682.46 825.859 682.46C841.369 682.46 852.227 670.051 852.227 651.439V449.803L824.308 395.517C822.757 392.414 822.757 389.312 822.757 386.21V369.149C822.757 364.496 825.859 361.393 830.512 361.393H962.351C967.004 361.393 970.106 364.496 970.106 369.149V648.337C970.106 730.542 909.615 791.033 825.859 791.033Z" fill="#07144A" style="fill:#07144A;fill:color(display-p3 0.0275 0.0784 0.2902);fill-opacity:1;"/>
</svg>
