<svg width="6" height="6" viewBox="0 0 6 6" fill="none" xmlns="http://www.w3.org/2000/svg">
<path d="M0.5 4.72116V1.16567C0.5 0.872491 0.5 0.725737 0.561696 0.638992C0.615544 0.563282 0.698542 0.513573 0.790685 0.501689C0.89622 0.488078 1.02566 0.55711 1.28416 0.69498L4.61743 2.47272L4.61864 2.47326C4.90433 2.62562 5.04723 2.70184 5.09411 2.80343C5.135 2.89204 5.135 2.99434 5.09411 3.08296C5.04717 3.18468 4.90392 3.26121 4.61743 3.414L1.28416 5.19175C1.02547 5.32972 0.896258 5.39848 0.790685 5.38487C0.698542 5.37298 0.615544 5.32328 0.561696 5.24757C0.5 5.16083 0.5 5.01435 0.5 4.72116Z" stroke="#82CDFF" style="stroke:#82CDFF;stroke:color(display-p3 0.5098 0.8039 1.0000);stroke-opacity:1;" stroke-linecap="round" stroke-linejoin="round"/>
</svg>
