<svg width="7" height="7" viewBox="0 0 7 7" fill="none" xmlns="http://www.w3.org/2000/svg">
<path d="M4.16672 1.33332V5.66657C4.16672 5.82145 4.16672 5.89889 4.17953 5.96329C4.23213 6.22774 4.43871 6.43459 4.70317 6.48719C4.76756 6.5 4.84501 6.5 4.99989 6.5C5.15477 6.5 5.23251 6.5 5.29691 6.48719C5.56136 6.43459 5.76806 6.22774 5.82066 5.96329C5.83335 5.89946 5.83335 5.82281 5.83335 5.67065V1.32924C5.83335 1.17707 5.83335 1.10028 5.82066 1.03645C5.76806 0.771993 5.56121 0.565413 5.29676 0.51281C5.23236 0.5 5.15492 0.5 5.00004 0.5C4.84515 0.5 4.76756 0.5 4.70317 0.51281C4.43871 0.565413 4.23213 0.771993 4.17953 1.03645C4.16672 1.10085 4.16672 1.17844 4.16672 1.33332Z" stroke="#82CDFF" style="stroke:#82CDFF;stroke:color(display-p3 0.5098 0.8039 1.0000);stroke-opacity:1;" stroke-linecap="round" stroke-linejoin="round"/>
<path d="M0.500122 1.33332V5.66657C0.500122 5.82145 0.500122 5.89889 0.512932 5.96329C0.565535 6.22774 0.772115 6.43459 1.03657 6.48719C1.10097 6.5 1.17841 6.5 1.33329 6.5C1.48817 6.5 1.56591 6.5 1.63031 6.48719C1.89476 6.43459 2.10146 6.22774 2.15406 5.96329C2.16676 5.89946 2.16676 5.82281 2.16676 5.67065V1.32924C2.16676 1.17707 2.16676 1.10028 2.15406 1.03645C2.10146 0.771993 1.89462 0.565413 1.63016 0.51281C1.56576 0.5 1.48832 0.5 1.33344 0.5C1.17856 0.5 1.10097 0.5 1.03657 0.51281C0.772115 0.565413 0.565535 0.771993 0.512932 1.03645C0.500122 1.10085 0.500122 1.17844 0.500122 1.33332Z" stroke="#82CDFF" style="stroke:#82CDFF;stroke:color(display-p3 0.5098 0.8039 1.0000);stroke-opacity:1;" stroke-linecap="round" stroke-linejoin="round"/>
</svg>
