<svg width="784" height="1450" viewBox="0 0 784 1450" fill="none" xmlns="http://www.w3.org/2000/svg">
<path d="M172.242 1031C172.242 1050.73 180.821 1075.72 197.979 1105.97C216.458 1134.91 240.876 1163.85 271.232 1192.78C301.589 1220.41 333.926 1242.11 368.242 1257.89L376.161 1259.87C382.76 1262.5 388.04 1263.81 392 1263.81C395.96 1263.81 401.239 1262.5 407.838 1259.87L415.758 1257.89C450.074 1242.11 482.411 1220.41 512.768 1192.78C543.124 1163.85 566.882 1134.91 584.04 1105.97C602.518 1075.72 611.758 1050.73 611.758 1031H784V1042.84C784 1100.71 758.922 1161.22 708.768 1224.35C658.613 1287.49 601.199 1340.76 536.525 1384.16C473.172 1427.57 424.997 1449.27 392 1449.27C359.003 1449.27 310.169 1427.57 245.495 1384.16C182.142 1340.76 125.387 1287.49 75.2324 1224.35C25.0775 1161.22 0 1100.71 0 1042.84V1031H172.242ZM391.5 0C437.636 0 496.296 10.5175 567.478 31.5518C639.977 52.586 698.636 72.9631 743.454 92.6826C769.818 103.2 783 122.262 783 149.869V345.094L610.978 295.794V201.395C579.582 190.249 547.946 180.303 516.068 171.561C463.341 157.099 421.818 149.869 391.5 149.869C361.182 149.869 319.659 157.099 266.932 171.561C235.054 180.303 203.418 190.249 172.022 201.395V422H0V149.869C0 122.262 13.1823 103.2 39.5459 92.6826C84.364 72.963 142.364 52.586 213.546 31.5518C286.046 10.5176 345.364 1.79315e-06 391.5 0Z" fill="white" style="fill:white;fill-opacity:1;"/>
</svg>
