<svg width="971" height="792" viewBox="0 0 971 792" fill="none" xmlns="http://www.w3.org/2000/svg">
<path d="M144.247 791.033C60.4908 791.033 0 730.542 0 648.337V142.696C0 60.4907 60.4908 0 144.247 0C228.004 0 288.494 60.4907 288.494 142.696V257.473C288.494 263.678 283.841 265.229 279.188 263.678L176.819 231.106C173.717 229.555 170.615 228.004 170.615 223.35V139.594C170.615 120.981 159.758 108.573 144.247 108.573C128.737 108.573 117.879 120.981 117.879 139.594V651.439C117.879 670.051 128.737 682.46 144.247 682.46C159.758 682.46 170.615 670.051 170.615 651.439V449.803L142.696 395.517C141.145 392.414 141.145 389.312 141.145 386.21V369.149C141.145 364.496 144.247 361.393 148.9 361.393H280.739C285.392 361.393 288.494 364.496 288.494 369.149V648.337C288.494 730.542 228.004 791.033 144.247 791.033Z" fill="white" style="fill:white;fill-opacity:1;"/>
<path d="M340.806 538.213C340.806 480.824 370.276 434.293 412.154 395.517C368.725 356.74 340.806 310.209 340.806 252.82V15.5104C340.806 10.8573 343.908 7.75522 348.561 7.75522H450.93C455.583 7.75522 458.685 10.8573 458.685 15.5104V268.331C458.685 279.188 463.338 294.699 474.196 311.76C481.951 324.168 488.155 324.168 495.91 311.76C506.768 294.699 511.421 279.188 511.421 268.331V15.5104C511.421 10.8573 514.523 7.75522 519.176 7.75522H621.545C626.198 7.75522 629.3 10.8573 629.3 15.5104V252.82C629.3 310.209 604.483 355.189 559.503 395.517C604.483 435.844 629.3 480.824 629.3 538.213V775.523C629.3 780.176 626.198 783.278 621.545 783.278H519.176C514.523 783.278 511.421 780.176 511.421 775.523V522.702C511.421 511.845 506.768 496.334 495.91 479.273C488.155 466.865 481.951 466.865 474.196 479.273C463.338 496.334 458.685 511.845 458.685 522.702V775.523C458.685 780.176 455.583 783.278 450.93 783.278H348.561C343.908 783.278 340.806 780.176 340.806 775.523V538.213Z" fill="white" style="fill:white;fill-opacity:1;"/>
<path d="M825.859 791.033C742.102 791.033 681.612 730.542 681.612 648.337V142.696C681.612 60.4907 742.102 0 825.859 0C909.615 0 970.106 60.4907 970.106 142.696V257.473C970.106 263.678 965.453 265.229 960.8 263.678L858.431 231.106C855.329 229.555 852.227 228.004 852.227 223.35V139.594C852.227 120.981 841.369 108.573 825.859 108.573C810.348 108.573 799.491 120.981 799.491 139.594V651.439C799.491 670.051 810.348 682.46 825.859 682.46C841.369 682.46 852.227 670.051 852.227 651.439V449.803L824.308 395.517C822.757 392.414 822.757 389.312 822.757 386.21V369.149C822.757 364.496 825.859 361.393 830.512 361.393H962.351C967.004 361.393 970.106 364.496 970.106 369.149V648.337C970.106 730.542 909.615 791.033 825.859 791.033Z" fill="white" style="fill:white;fill-opacity:1;"/>
</svg>
