<svg width="1920" height="1920" viewBox="0 0 1920 1920" fill="none" xmlns="http://www.w3.org/2000/svg">
<rect width="1920" height="1920" rx="400" fill="#82CDFF" style="fill:#82CDFF;fill:color(display-p3 0.5098 0.8039 1.0000);fill-opacity:1;"/>
<path d="M740.242 1266.36C740.242 1286.09 748.821 1311.09 765.979 1341.34C784.458 1370.28 808.876 1399.21 839.232 1428.15C869.589 1455.77 901.926 1477.47 936.242 1493.26L944.161 1495.23C950.76 1497.86 956.04 1499.18 960 1499.18C963.96 1499.18 969.239 1497.86 975.838 1495.23L983.758 1493.26C1018.07 1477.47 1050.41 1455.77 1080.77 1428.15C1111.12 1399.21 1134.88 1370.28 1152.04 1341.34C1170.52 1311.09 1179.76 1286.09 1179.76 1266.36H1352V1278.2C1352 1336.08 1326.92 1396.58 1276.77 1459.72C1226.61 1522.85 1169.2 1576.12 1104.53 1619.53C1041.17 1662.93 992.997 1684.64 960 1684.64C927.003 1684.64 878.169 1662.93 813.495 1619.53C750.142 1576.12 693.387 1522.85 643.232 1459.72C593.078 1396.58 568 1336.08 568 1278.2V1266.36H740.242ZM959.5 235.365C1005.64 235.365 1064.3 245.882 1135.48 266.917C1207.98 287.951 1266.64 308.328 1311.45 328.047C1337.82 338.565 1351 357.626 1351 385.234V580.458L1178.98 531.159V436.759C1147.58 425.614 1115.95 415.668 1084.07 406.925C1031.34 392.464 989.818 385.234 959.5 385.234C929.182 385.234 887.659 392.464 834.932 406.925C803.054 415.668 771.418 425.614 740.022 436.759V657.365H568V385.234C568 357.626 581.182 338.565 607.546 328.047C652.364 308.328 710.364 287.951 781.546 266.917C854.046 245.882 913.364 235.365 959.5 235.365Z" fill="white" style="fill:white;fill-opacity:1;"/>
<path d="M483.123 1348C478.47 1348 475.368 1344.9 475.368 1340.24V580.233C475.368 575.579 478.47 572.477 483.123 572.477H619.615C703.371 572.477 763.862 628.315 763.862 705.867V828.4C763.862 862.523 745.25 895.095 715.78 915.258V926.116C745.25 938.524 763.862 967.994 763.862 1008.32V1213.06C763.862 1290.61 703.371 1348 619.615 1348H483.123ZM619.615 1247.18C635.125 1247.18 645.983 1234.77 645.983 1216.16V1022.28C645.983 1002.12 632.023 991.26 611.86 995.913L593.247 1000.57V1247.18H619.615ZM593.247 888.891L616.513 882.686C633.574 878.033 645.983 860.972 645.983 840.808V704.316C645.983 685.704 635.125 673.295 619.615 673.295H593.247V888.891ZM823.929 1348C819.276 1348 816.174 1344.9 816.174 1340.24V580.233C816.174 575.579 819.276 572.477 823.929 572.477H961.972C1044.18 572.477 1104.67 629.866 1104.67 707.418V1213.06C1104.67 1290.61 1044.18 1348 961.972 1348H823.929ZM960.421 1247.18C975.931 1247.18 986.789 1234.77 986.789 1216.16V704.316C986.789 685.704 975.931 673.295 960.421 673.295H934.053V1247.18H960.421ZM1301.23 1355.76C1217.47 1355.76 1156.98 1295.26 1156.98 1213.06V707.418C1156.98 625.213 1217.47 564.722 1301.23 564.722C1384.98 564.722 1445.47 625.213 1445.47 707.418V822.196C1445.47 828.4 1440.82 829.951 1436.17 828.4L1333.8 795.828C1330.7 794.277 1327.59 792.726 1327.59 788.073V704.316C1327.59 685.704 1316.74 673.295 1301.23 673.295C1285.72 673.295 1274.86 685.704 1274.86 704.316V1216.16C1274.86 1234.77 1285.72 1247.18 1301.23 1247.18C1316.74 1247.18 1327.59 1234.77 1327.59 1216.16V1014.53L1299.68 960.239C1298.12 957.137 1298.12 954.035 1298.12 950.932V933.871C1298.12 929.218 1301.23 926.116 1305.88 926.116H1437.72C1442.37 926.116 1445.47 929.218 1445.47 933.871V1213.06C1445.47 1295.26 1384.98 1355.76 1301.23 1355.76Z" fill="#07144A" style="fill:#07144A;fill:color(display-p3 0.0275 0.0784 0.2902);fill-opacity:1;"/>
</svg>
