<svg width="1920" height="1920" viewBox="0 0 1920 1920" fill="none" xmlns="http://www.w3.org/2000/svg">
<rect width="1920" height="1920" rx="400" fill="#1F3AB6" style="fill:#1F3AB6;fill:color(display-p3 0.1216 0.2275 0.7137);fill-opacity:1;"/>
<path d="M740.242 1266.36C740.242 1286.09 748.821 1311.09 765.979 1341.34C784.458 1370.28 808.876 1399.21 839.232 1428.15C869.589 1455.77 901.926 1477.47 936.242 1493.26L944.161 1495.23C950.76 1497.86 956.04 1499.18 960 1499.18C963.96 1499.18 969.239 1497.86 975.838 1495.23L983.758 1493.26C1018.07 1477.47 1050.41 1455.77 1080.77 1428.15C1111.12 1399.21 1134.88 1370.28 1152.04 1341.34C1170.52 1311.09 1179.76 1286.09 1179.76 1266.36H1352V1278.2C1352 1336.08 1326.92 1396.58 1276.77 1459.72C1226.61 1522.85 1169.2 1576.12 1104.53 1619.53C1041.17 1662.93 992.997 1684.64 960 1684.64C927.003 1684.64 878.169 1662.93 813.495 1619.53C750.142 1576.12 693.387 1522.85 643.232 1459.72C593.078 1396.58 568 1336.08 568 1278.2V1266.36H740.242ZM959.5 235.365C1005.64 235.365 1064.3 245.882 1135.48 266.917C1207.98 287.951 1266.64 308.328 1311.45 328.047C1337.82 338.565 1351 357.626 1351 385.234V580.458L1178.98 531.159V436.759C1147.58 425.614 1115.95 415.668 1084.07 406.925C1031.34 392.464 989.818 385.234 959.5 385.234C929.182 385.234 887.659 392.464 834.932 406.925C803.054 415.668 771.418 425.614 740.022 436.759V657.365H568V385.234C568 357.626 581.182 338.565 607.546 328.047C652.364 308.328 710.364 287.951 781.546 266.917C854.046 245.882 913.364 235.365 959.5 235.365Z" fill="#07144A" style="fill:#07144A;fill:color(display-p3 0.0275 0.0784 0.2902);fill-opacity:1;"/>
<path d="M619.615 1356.47C535.859 1356.47 475.368 1295.98 475.368 1213.77V708.13C475.368 625.925 535.859 565.434 619.615 565.434C703.371 565.434 763.862 625.925 763.862 708.13V822.907C763.862 829.111 759.209 830.662 754.556 829.111L652.187 796.54C649.085 794.988 645.983 793.437 645.983 788.784V705.028C645.983 686.415 635.125 674.007 619.615 674.007C604.105 674.007 593.247 686.415 593.247 705.028V1216.87C593.247 1235.49 604.105 1247.89 619.615 1247.89C635.125 1247.89 645.983 1235.49 645.983 1216.87V1015.24L618.064 960.95C616.513 957.848 616.513 954.746 616.513 951.644V934.583C616.513 929.929 619.615 926.827 624.268 926.827H756.107C760.76 926.827 763.862 929.929 763.862 934.583V1213.77C763.862 1295.98 703.371 1356.47 619.615 1356.47ZM816.174 1103.65C816.174 1046.26 845.643 999.726 887.522 960.95C844.092 922.174 816.174 875.643 816.174 818.254V580.944C816.174 576.291 819.276 573.189 823.929 573.189H926.298C930.951 573.189 934.053 576.291 934.053 580.944V833.765C934.053 844.622 938.706 860.132 949.563 877.194C957.319 889.602 963.523 889.602 971.278 877.194C982.135 860.132 986.789 844.622 986.789 833.765V580.944C986.789 576.291 989.891 573.189 994.544 573.189H1096.91C1101.57 573.189 1104.67 576.291 1104.67 580.944V818.254C1104.67 875.643 1079.85 920.623 1034.87 960.95C1079.85 1001.28 1104.67 1046.26 1104.67 1103.65V1340.96C1104.67 1345.61 1101.57 1348.71 1096.91 1348.71H994.544C989.891 1348.71 986.789 1345.61 986.789 1340.96V1088.14C986.789 1077.28 982.135 1061.77 971.278 1044.71C963.523 1032.3 957.319 1032.3 949.563 1044.71C938.706 1061.77 934.053 1077.28 934.053 1088.14V1340.96C934.053 1345.61 930.951 1348.71 926.298 1348.71H823.929C819.276 1348.71 816.174 1345.61 816.174 1340.96V1103.65ZM1301.23 1356.47C1217.47 1356.47 1156.98 1295.98 1156.98 1213.77V708.13C1156.98 625.925 1217.47 565.434 1301.23 565.434C1384.98 565.434 1445.47 625.925 1445.47 708.13V822.907C1445.47 829.111 1440.82 830.662 1436.17 829.111L1333.8 796.54C1330.7 794.988 1327.59 793.437 1327.59 788.784V705.028C1327.59 686.415 1316.74 674.007 1301.23 674.007C1285.72 674.007 1274.86 686.415 1274.86 705.028V1216.87C1274.86 1235.49 1285.72 1247.89 1301.23 1247.89C1316.74 1247.89 1327.59 1235.49 1327.59 1216.87V1015.24L1299.68 960.95C1298.12 957.848 1298.12 954.746 1298.12 951.644V934.583C1298.12 929.929 1301.23 926.827 1305.88 926.827H1437.72C1442.37 926.827 1445.47 929.929 1445.47 934.583V1213.77C1445.47 1295.98 1384.98 1356.47 1301.23 1356.47Z" fill="white" style="fill:white;fill-opacity:1;"/>
</svg>
